<svg width="22" height="22" viewBox="0 0 22 22" fill="none" xmlns="http://www.w3.org/2000/svg">
<g clip-path="url(#clip0_129_240)">
<path d="M15.2715 0.065192C15.2259 0.0141806 13.5814 0.0853282 12.1504 1.63849C10.7194 3.19032 10.9395 4.97035 10.9718 5.01599C11.004 5.06163 13.0122 5.13278 14.2942 3.32724C15.5762 1.5217 15.3171 0.117546 15.2715 0.065192V0.065192ZM19.7202 15.8157C19.6558 15.6868 16.5991 14.1591 16.8837 11.2219C17.1683 8.28341 19.1323 7.47796 19.1631 7.39071C19.194 7.30345 18.3617 6.33021 17.4798 5.83754C16.8322 5.4902 16.1155 5.29119 15.3816 5.25494C15.2366 5.25091 14.7332 5.12741 13.6982 5.41066C13.0163 5.59725 11.4792 6.20133 11.0563 6.2255C10.6321 6.24966 9.37028 5.52476 8.0131 5.3328C7.14457 5.165 6.22368 5.50865 5.56455 5.77311C4.90677 6.03622 3.65565 6.78528 2.7804 8.77607C1.90515 10.7655 2.36291 13.9175 2.69046 14.8974C3.01801 15.8761 3.52946 17.4802 4.39934 18.6508C5.17257 19.9717 6.19817 20.8886 6.6264 21.2C7.05463 21.5115 8.26279 21.7182 9.10045 21.29C9.77434 20.8765 10.9906 20.6389 11.4711 20.6564C11.9504 20.6738 12.8954 20.8631 13.8633 21.3799C14.6298 21.6444 15.3547 21.5343 16.081 21.239C16.8072 20.9423 17.8583 19.8174 19.0853 17.5366C19.5511 16.4761 19.7632 15.9029 19.7202 15.8157V15.8157Z" fill="black"/>
<path d="M15.2715 0.065192C15.2259 0.0141806 13.5814 0.0853282 12.1504 1.63849C10.7194 3.19032 10.9395 4.97035 10.9718 5.01599C11.004 5.06163 13.0122 5.13278 14.2942 3.32724C15.5762 1.5217 15.3171 0.117546 15.2715 0.065192V0.065192ZM19.7202 15.8157C19.6558 15.6868 16.5991 14.1591 16.8837 11.2219C17.1683 8.28341 19.1323 7.47796 19.1631 7.39071C19.194 7.30345 18.3617 6.33021 17.4798 5.83754C16.8322 5.4902 16.1155 5.29119 15.3816 5.25494C15.2366 5.25091 14.7332 5.12741 13.6982 5.41066C13.0163 5.59725 11.4792 6.20133 11.0563 6.2255C10.6321 6.24966 9.37028 5.52476 8.0131 5.3328C7.14457 5.165 6.22368 5.50865 5.56455 5.77311C4.90677 6.03622 3.65565 6.78528 2.7804 8.77607C1.90515 10.7655 2.36291 13.9175 2.69046 14.8974C3.01801 15.8761 3.52946 17.4802 4.39934 18.6508C5.17257 19.9717 6.19817 20.8886 6.6264 21.2C7.05463 21.5115 8.26279 21.7182 9.10045 21.29C9.77434 20.8765 10.9906 20.6389 11.4711 20.6564C11.9504 20.6738 12.8954 20.8631 13.8633 21.3799C14.6298 21.6444 15.3547 21.5343 16.081 21.239C16.8072 20.9423 17.8583 19.8174 19.0853 17.5366C19.5511 16.4761 19.7632 15.9029 19.7202 15.8157V15.8157Z" fill="black"/>
</g>
<defs>
<clipPath id="clip0_129_240">
<rect width="21.4785" height="21.4785" fill="white" transform="translate(0.260742 0.0544434)"/>
</clipPath>
</defs>
</svg>
