<svg width="180" height="44" viewBox="0 0 180 44" fill="none" xmlns="http://www.w3.org/2000/svg">
<path d="M65.2529 43.4596H65.1379C60.4792 43.4045 56.0063 41.6241 52.584 38.4627L56.7672 34.0026C59.0639 36.1255 62.066 37.3215 65.1933 37.3594H65.2743C68.3986 37.3398 71.4049 36.1636 73.7131 34.0579L77.8495 38.5394C74.4044 41.682 69.9161 43.4352 65.2529 43.4596Z" fill="#713584"/>
<path d="M0 32.7587V7.29721H6.18538V27.3188H17.5338V32.7587H0Z" fill="#713584"/>
<path d="M21.8623 32.7587V13.4442H27.6856V32.7587H21.8623Z" fill="#713584"/>
<path d="M33.1377 32.7587V13.4442H38.6756L38.7863 15.7744C39.5002 14.9455 40.3795 14.2751 41.3678 13.8063C42.3981 13.3017 43.5306 13.0408 44.6778 13.0438C46.8631 13.0438 48.5117 13.7126 49.6619 15.046C50.812 16.3793 51.3658 18.3304 51.3658 20.9033V32.7587H45.5085V21.3762C45.5085 19.019 44.5145 17.8831 42.5265 17.9683C41.5861 17.9331 40.6691 18.2663 39.9706 18.8969C39.6424 19.184 39.3812 19.5394 39.2053 19.9384C39.0294 20.3373 38.9431 20.7699 38.9525 21.2058V32.7587H33.1377Z" fill="#713584"/>
<path d="M89.6666 33.125C87.7991 33.1637 85.9528 32.7238 84.3034 31.847C82.767 31.0158 81.4847 29.7836 80.593 28.2815C79.6676 26.7127 79.1943 24.9184 79.2256 23.0972C79.19 21.316 79.6449 19.5592 80.5404 18.0191C81.436 16.4789 82.7377 15.2146 84.3034 14.3644C85.9545 13.5053 87.7883 13.0568 89.6496 13.0568C91.5108 13.0568 93.3446 13.5053 94.9957 14.3644C96.5258 15.2042 97.806 16.4345 98.7061 17.9299C99.6318 19.4922 100.104 21.2816 100.069 23.0972C100.102 24.918 99.6303 26.7123 98.7061 28.2815C97.8132 29.7827 96.5312 31.0146 94.9957 31.847C93.3577 32.7213 91.523 33.1613 89.6666 33.125ZM89.6666 28.1026C90.2774 28.1188 90.8842 28.0001 91.4438 27.7549C92.0034 27.5097 92.502 27.1441 92.9041 26.684C93.7694 25.6911 94.2126 24.3994 94.1395 23.0844C94.2164 21.7573 93.7733 20.4523 92.9041 19.4465C92.4915 18.9966 91.9899 18.6374 91.4311 18.3917C90.8723 18.146 90.2685 18.0191 89.6581 18.0191C89.0476 18.0191 88.4439 18.146 87.8851 18.3917C87.3263 18.6374 86.8247 18.9966 86.412 19.4465C85.5317 20.4415 85.0733 21.7402 85.1341 23.0674C85.0698 24.3887 85.529 25.682 86.412 26.667C86.817 27.1291 87.3182 27.4971 87.8804 27.7451C88.4426 27.9931 89.0522 28.1151 89.6666 28.1026Z" fill="#713584"/>
<path d="M103.925 32.7587V5.84033H109.748V32.7587H103.925Z" fill="#713584"/>
<path d="M123.788 33.125C121.855 33.1702 119.941 32.7309 118.221 31.8471C116.689 31.0411 115.416 29.8183 114.549 28.3199C113.663 26.7635 113.21 24.9985 113.237 23.208C113.2 21.3746 113.64 19.5631 114.514 17.9512C115.335 16.4633 116.542 15.2241 118.008 14.3644C119.544 13.479 121.291 13.027 123.064 13.0566C124.747 13.0288 126.403 13.4714 127.848 14.3346C129.231 15.1714 130.357 16.3725 131.103 17.8064C131.896 19.3512 132.272 21.0768 132.193 22.8118L132.168 24.3581H118.877C119.161 25.4547 119.833 26.4111 120.768 27.0504C121.644 27.5668 122.621 27.8891 123.632 27.9957C124.643 28.1022 125.665 27.9905 126.63 27.6681C127.383 27.3587 128.088 26.9411 128.721 26.4285L131.448 30.2879C130.364 31.2179 129.117 31.9399 127.771 32.4179C126.494 32.8798 125.147 33.119 123.788 33.125ZM123.132 17.9172C120.781 17.9172 119.361 18.9722 118.872 21.0823H126.8V21.0482C126.776 20.6151 126.664 20.1915 126.471 19.8033C126.277 19.4151 126.007 19.0704 125.675 18.7904C124.963 18.1988 124.058 17.8882 123.132 17.9172Z" fill="#713584"/>
<path d="M143.03 33.0867C141.486 33.1141 139.969 32.6682 138.685 31.8087C137.376 30.9071 136.328 29.6756 135.648 28.2389C134.875 26.6353 134.488 24.8729 134.519 23.0929C134.482 21.2946 134.868 19.5127 135.648 17.8916C136.338 16.4565 137.398 15.2315 138.719 14.3431C140.055 13.4763 141.621 13.031 143.214 13.0651C144.374 13.0422 145.522 13.304 146.558 13.8276C147.489 14.306 148.308 14.9768 148.96 15.7957V13.4442H154.745V32.7587H148.849V30.4328C148.173 31.2531 147.322 31.9111 146.357 32.3582C145.318 32.8515 144.18 33.1006 143.03 33.0867ZM144.632 28.175C145.235 28.199 145.835 28.0874 146.389 27.8485C146.942 27.6096 147.435 27.2496 147.831 26.7948C148.632 25.8747 149.033 24.635 149.033 23.0844C149.099 21.7371 148.672 20.4117 147.831 19.357C147.439 18.8969 146.947 18.5318 146.393 18.2891C145.838 18.0463 145.237 17.9323 144.632 17.9555C144.035 17.9335 143.441 18.0483 142.896 18.2912C142.35 18.5342 141.867 18.8987 141.484 19.357C140.654 20.4167 140.235 21.7404 140.304 23.0844C140.304 24.635 140.696 25.8747 141.484 26.7948C141.87 27.248 142.354 27.6076 142.899 27.8467C143.445 28.0858 144.037 28.198 144.632 28.175Z" fill="#713584"/>
<path d="M159.857 40.763V13.4442H165.395L165.502 15.5529C166.201 14.7693 167.069 14.1546 168.041 13.7552C169.116 13.2898 170.277 13.0547 171.449 13.0651C173.01 13.0417 174.543 13.4868 175.849 14.3431C177.166 15.2276 178.216 16.4544 178.886 17.8916C179.65 19.5114 180.031 21.2854 179.998 23.0759C180.03 24.8605 179.647 26.6281 178.878 28.2389C178.198 29.6751 177.143 30.9011 175.824 31.7874C174.275 32.7823 172.435 33.2256 170.603 33.0455C168.771 32.8653 167.053 32.0724 165.728 30.7948V40.763H159.857ZM169.932 28.175C170.531 28.1964 171.127 28.0817 171.675 27.8397C172.223 27.5977 172.709 27.2346 173.097 26.7778C173.935 25.7345 174.362 24.4209 174.299 23.0844C174.362 21.7508 173.941 20.4392 173.114 19.3911C172.726 18.9304 172.237 18.5646 171.686 18.3217C171.134 18.0788 170.534 17.9652 169.932 17.9896C169.329 17.9661 168.728 18.0783 168.173 18.3179C167.619 18.5575 167.125 18.9184 166.729 19.374C165.888 20.4222 165.462 21.7427 165.532 23.0844C165.468 24.4201 165.894 25.7331 166.729 26.7778C167.124 27.2397 167.62 27.6056 168.178 27.8477C168.736 28.0898 169.342 28.2017 169.949 28.175H169.932Z" fill="#713584"/>
<path d="M75.1575 19.6296V12.0172H69.7901V13.9469C68.2185 13.2906 66.5217 12.9885 64.8202 13.0622C63.1188 13.1358 61.4544 13.5833 59.9454 14.3729C57.6137 15.7296 55.9145 17.955 55.2198 20.5618C54.5252 23.1686 54.8918 25.9444 56.2393 28.2815C57.1316 29.7827 58.4118 31.0159 59.9454 31.8513C61.6022 32.6969 63.4358 33.1377 65.2959 33.1377C67.1559 33.1377 68.9895 32.6969 70.6463 31.8513C72.2164 30.9979 73.5207 29.728 74.4158 28.1812C75.3109 26.6345 75.7621 24.871 75.7199 23.0844C75.7296 21.9093 75.5395 20.741 75.1575 19.6296ZM68.5504 26.6883C68.1475 27.1484 67.6481 27.5141 67.0878 27.7593C66.5275 28.0044 65.92 28.1231 65.3086 28.1069C64.6957 28.1206 64.0872 28.0009 63.5252 27.7559C62.9632 27.511 62.4612 27.1467 62.0541 26.6883C61.1779 25.6993 60.7291 24.4035 60.8059 23.0844C60.7306 21.7604 61.1789 20.4599 62.0541 19.4635C62.4578 18.999 62.9585 18.6286 63.5207 18.3784C64.083 18.1282 64.6933 18.0042 65.3086 18.0151C65.92 17.9989 66.5275 18.1175 67.0878 18.3627C67.6481 18.6079 68.1475 18.9736 68.5504 19.4337C69.4211 20.4389 69.8658 21.7439 69.7901 23.0716C69.867 24.3931 69.4218 25.6919 68.5504 26.6883Z" fill="#713584"/>
<path d="M24.772 11.6807C27.9975 11.6807 30.6123 9.06586 30.6123 5.84033C30.6123 2.61481 27.9975 0 24.772 0C21.5464 0 18.9316 2.61481 18.9316 5.84033C18.9316 9.06586 21.5464 11.6807 24.772 11.6807Z" fill="#713584"/>
</svg>
